<?xml version="1.0" encoding="UTF-8"?>
<!DOCTYPE svg PUBLIC "-//W3C//DTD SVG 1.1//EN" "http://www.w3.org/Graphics/SVG/1.1/DTD/svg11.dtd">
<!-- Creator: CorelDRAW 2018 (64-Bit) -->
<svg xmlns="http://www.w3.org/2000/svg" xml:space="preserve" width="67.7334mm" height="67.7334mm" version="1.1" style="shape-rendering:geometricPrecision; text-rendering:geometricPrecision; image-rendering:optimizeQuality; fill-rule:evenodd; clip-rule:evenodd"
viewBox="0 0 6719 6719"
 xmlns:xlink="http://www.w3.org/1999/xlink">
 <defs>
  <style type="text/css">
   <![CDATA[
    .fil1 {fill:#FEFEFE}
    .fil0 {fill:url(#id0)}
   ]]>
  </style>
  <linearGradient id="id0" gradientUnits="userSpaceOnUse" x1="-9.58" y1="1945.81" x2="6495.25" y2="5781.49">
   <stop offset="0" style="stop-opacity:1; stop-color:#06A0CE"/>
   <stop offset="1" style="stop-opacity:1; stop-color:#51CBBF"/>
  </linearGradient>
 </defs>
 <g id="Слой_x0020_1">
  <metadata id="CorelCorpID_0Corel-Layer"/>
  <path class="fil0" d="M1574.76 0l3569.47 0c869.57,0 1574.76,705.2 1574.76,1574.76l0 3569.47c0,869.56 -705.2,1574.75 -1574.76,1574.75l-3569.47 0.01c-869.56,-0.01 -1574.75,-705.21 -1574.75,-1574.77l-0.01 -3569.46c0.01,-869.57 705.21,-1574.76 1574.77,-1574.76z"/>
  <path class="fil1" d="M5948.05 1518.1c-170.56,-170.03 -402.09,-265.78 -643.07,-265.78 -231.09,0 -453.84,87.97 -622.54,245.88 -17.19,15.88 -27.05,38.22 -27.13,61.66 -0.02,0.77 -0.04,1.57 -0.04,2.33 0,22.76 9.09,44.62 25.23,60.66l114.69 114.69c16.27,16.19 38.31,25.3 61.28,25.3 18.77,0 37.05,-6.09 52.07,-17.35 90.38,-67.97 200.52,-104.79 313.64,-104.79 288.1,0 521.74,233.64 521.74,521.74 0,138.87 -55.41,272.06 -153.84,369.96 -722.66,722.63 -1687.9,-1302.67 -3876.28,-261.2 -104.79,48.66 -171.87,153.81 -171.87,269.37 0,51.77 13.6,102.72 39.31,147.64l375.89 649.7c52.89,91.56 150.75,148.03 256.55,148.03 50.82,0 100.9,-13.09 145.19,-37.99l9.27 -7.3 -7.29 5.31 166.39 -92.82c185.48,-115 361.36,-246.56 524.51,-391.33 16.76,-15.35 38.91,-24 61.87,-24 20.84,0 41.11,7.14 57.35,20.22l-0.01 0c20.95,16.33 33.18,41.4 33.18,67.94 0,24.73 -10.63,48.3 -29.18,64.65 -171.12,154.93 -356.36,294.46 -552.09,416.38l-5.97 0 -166.39 93.47c-70.79,38.94 -150.33,59.51 -231.04,59.51 -169.63,0 -326.63,-90.15 -412.18,-236.6l-355.34 -612.57c-681.5,484.64 -1094.52,1412.1 -873.75,2584.85 7.38,41.03 43.12,70.92 84.83,70.92 0.01,0 0.02,0 0.03,0l403.72 0.01c43.76,-0.29 80.56,-32.86 86.19,-76.23 37.2,-295.94 289.09,-518.04 587.37,-518.04 298.28,0 550.15,222.1 587.38,518.01 5.32,43.29 41.91,75.93 85.51,76.25l393.79 0.01c43.75,-0.29 80.56,-32.86 86.19,-76.23 37.2,-295.94 289.08,-518.04 587.37,-518.04 298.28,0 550.15,222.1 587.38,518.01 5.31,43.59 42.3,76.34 86.19,76.34 1.32,0 2.65,-0.03 3.96,-0.09l389.13 0.01c47.32,-0.34 85.79,-38.23 86.86,-85.52 8.62,-548.92 156.45,-1178.72 578.75,-1494.94 1457.16,-1092.52 1072.64,-2028.6 735.2,-2368.04zm-1490.31 1651.39l-278.44 -139.88 0 0c0,-0.22 0,-0.44 0,-0.64 0,-96.64 78.39,-175.02 175.02,-175.02 96.64,0 175.02,78.39 175.02,175.02 0,55.77 -26.63,108.24 -71.61,141.19l0 -0.66z"/>
 </g>
</svg>
