<?xml version="1.0" encoding="UTF-8"?>
<!DOCTYPE svg PUBLIC "-//W3C//DTD SVG 1.1//EN" "http://www.w3.org/Graphics/SVG/1.1/DTD/svg11.dtd">
<!-- Creator: CorelDRAW 2018 (64-Bit) -->
<svg xmlns="http://www.w3.org/2000/svg" xml:space="preserve" width="67.7334mm" height="67.7334mm" version="1.1" style="shape-rendering:geometricPrecision; text-rendering:geometricPrecision; image-rendering:optimizeQuality; fill-rule:evenodd; clip-rule:evenodd"
viewBox="0 0 6719 6719"
 xmlns:xlink="http://www.w3.org/1999/xlink">
 <defs>
  <style type="text/css">
   <![CDATA[
    .str0 {stroke:#D33833;stroke-width:65.62;stroke-miterlimit:22.9256}
    .fil11 {fill:none}
    .fil0 {fill:whitesmoke}
    .fil13 {fill:#1D1919}
    .fil3 {fill:#231F20}
    .fil5 {fill:#335061}
    .fil9 {fill:#49728B}
    .fil6 {fill:#6D6B6D}
    .fil12 {fill:#81B0C4}
    .fil1 {fill:#D33833}
    .fil7 {fill:#DCD9D8}
    .fil2 {fill:#EF3D3A}
    .fil4 {fill:#F0D6B7}
    .fil8 {fill:#F7E4CD}
    .fil10 {fill:white}
   ]]>
  </style>
   <clipPath id="id0">
    <path d="M1135.74 6429.46l4447.51 0 0 -6139.92 -4447.51 0 0 6139.92z"/>
   </clipPath>
 </defs>
 <g id="Слой_x0020_1">
  <metadata id="CorelCorpID_0Corel-Layer"/>
  <path class="fil0" d="M1574.76 0l3569.47 0c869.57,0 1574.76,705.2 1574.76,1574.76l0 3569.47c0,869.56 -705.2,1574.75 -1574.76,1574.75l-3569.47 0.01c-869.56,-0.01 -1574.75,-705.21 -1574.75,-1574.77l-0.01 -3569.46c0.01,-869.57 705.21,-1574.76 1574.77,-1574.76z"/>
  <g>
  </g>
  <g style="clip-path:url(#id0)">
   <g>
    <path class="fil1" d="M5507.43 3249.69c0,1215.9 -963.67,2201.59 -2152.42,2201.59 -1188.73,0 -2152.39,-985.7 -2152.39,-2201.59 0,-1215.93 963.67,-2201.64 2152.39,-2201.64 1188.76,0 2152.42,985.72 2152.42,2201.64z"/>
    <g>
     <path class="fil2" d="M1290.32 3794.95c0,0 -155.82,-2295.9 1959.72,-2361.5l-147.6 -246 -1147.95 385.39 -328 377.18 -286.98 549.4 -164 639.57 49.19 426.39 65.61 229.57zm0 0l0 0 0 0z"/>
    </g>
    <path class="fil3" d="M1880.8 1747.79c-377.65,386.4 -611.34,919.92 -611.34,1510.12 0,590.09 233.69,1123.64 611.34,1510 377.82,386.33 898.54,624.71 1474.19,624.71 575.67,0 1096.4,-238.38 1474.2,-624.71 377.64,-386.36 611.38,-919.91 611.38,-1510 0,-590.2 -233.74,-1123.71 -611.38,-1510.12 -377.79,-386.26 -898.52,-624.65 -1474.2,-624.7 -575.64,0.05 -1096.36,238.44 -1474.19,624.7zm-95.6 3113.57c-401.34,-410.46 -649.47,-977.73 -649.47,-1603.45 0,-625.84 248.12,-1193.04 649.47,-1603.52 401.25,-410.56 956.7,-665.04 1569.78,-664.96 613.1,-0.08 1168.58,254.4 1569.76,664.96 401.39,410.48 649.55,977.74 649.51,1603.52 0.04,625.72 -248.11,1192.99 -649.51,1603.45 -401.19,410.51 -956.66,664.98 -1569.76,664.98 -613.08,0 -1168.53,-254.47 -1569.78,-664.98z"/>
    <g>
     <path class="fil4" d="M4261.08 3261.91l-328.02 49.18 -442.78 49.21 -287.02 8.16 -278.75 -8.16 -213.23 -65.61 -188.61 -204.99 -147.58 -418.18 -32.79 -90.23 -196.8 -65.58 -114.8 -188.59 -81.99 -270.58 90.2 -237.81 213.19 -73.79 172.19 82.01 82.03 180.39 98.39 -16.4 32.78 -40.99 -32.78 -188.6 -8.23 -237.81 49.21 -327.97 -1.92 -187.35 149.53 -239.03 262.39 -188.6 459.18 -196.79 508.39 73.79 442.78 319.79 205.01 327.97 131.19 237.81 32.77 590.38 -98.39 508.4 -180.39 450.96 -172.19 237.81 -122.96 131.21zm0 0l0 0 0 0z"/>
    </g>
    <polygon class="fil5" points="3982.27,4680.42 2809.69,4729.63 2809.69,4926.41 2908.08,5615.19 2858.91,5672.6 2038.94,5393.79 1981.52,5295.39 1899.53,4368.85 1710.96,3811.28 1669.94,3680.07 2325.92,3229.08 2530.92,3147.09 2711.29,3368.47 2867.1,3507.87 3047.49,3565.28 3129.49,3589.87 3227.88,4016.26 3301.68,4106.46 3490.28,4040.85 3359.07,4295.04 4072.46,4631.23 "/>
    <polygon class="fil6" points="2038.94,1818.73 2252.11,1744.94 2424.3,1826.94 2506.32,2007.34 2604.71,1990.92 2629.3,1892.52 2580.12,1703.96 2629.3,1252.96 2588.3,1006.97 2735.89,834.77 3055.69,580.58 2965.5,457.59 2514.48,678.98 2325.9,826.58 2219.32,1056.16 2055.32,1277.56 2006.13,1539.95 "/>
    <path class="fil7" d="M2375.11 1047.96c0,0 122.98,-303.37 614.98,-450.97 491.99,-147.59 24.59,-106.61 24.59,-106.61l-532.96 205 -205 204.99 -90.19 163.99 188.58 -16.41z"/>
    <path class="fil7" d="M2129.11 1761.34c0,0 -172.2,-574.01 483.81,-655.99l-24.62 -98.38 -450.96 106.61 -131.21 426.37 32.81 278.79 90.17 -57.39z"/>
    <g>
     <path class="fil8" d="M2391.51 2523.92l107.35 -104.03c0,0 48.48,5.63 56.64,63.02 8.19,57.43 32.79,573.99 385.37,852.79 32.17,25.45 -262.36,-41.01 -262.36,-41.01l-262.42 -409.99 -24.59 -360.78zm0 0l0 0 0 0z"/>
    </g>
    <path class="fil8" d="M3900.31 2368.13c0,0 19.13,-248.55 86.04,-229.42 66.93,19.11 66.93,86.04 66.93,86.04 0,0 -162.56,105.16 -152.97,143.38z"/>
    <g>
     <path class="fil8" d="M4580.84 1457.96c0,0 -135.16,28.53 -147.6,147.61 -12.46,119.08 147.6,24.59 172.2,16.41l-24.6 -164.01zm0 0l0 0 0 0z"/>
    </g>
    <g>
     <path class="fil8" d="M3588.67 1466.17c0,0 -180.39,24.6 -180.39,139.39 0,114.8 205.02,106.61 262.4,57.41l-82.01 -196.8zm0 0l0 0 0 0z"/>
    </g>
    <path class="fil8" d="M2473.51 1999.15c0,0 -311.61,-188.61 -344.39,-8.19 -32.79,180.38 -106.62,311.59 49.2,500.17l-106.6 -32.79 -98.39 -254.18 -32.78 -246 188.57 -196.81 213.2 16.41 123 98.39 8.2 123.01z"/>
    <path class="fil8" d="M2621.1 1482.56c0,0 139.38,-721.56 844.59,-860.97 580.55,-114.76 885.53,24.59 1000.34,155.79 0,0 -516.57,-614.96 -1008.58,-426.37 -491.95,188.59 -852.73,532.98 -844.53,754.34 13.96,377.07 8.18,377.21 8.18,377.21z"/>
    <g>
     <path class="fil8" d="M4523.45 859.37c0,0 -237.77,-8.19 -246,205 0,0 0,32.79 16.4,65.58 0,0 188.62,-213.2 303.4,-98.39l-73.79 -172.19zm0 0l0 0 0 0z"/>
    </g>
    <path class="fil8" d="M3482.2 1152.17c0,0 -40.92,-327.24 -319.91,-136.99 -180.39,122.99 -163.97,295.19 -131.22,327.98 32.82,32.81 23.89,98.87 48.88,53.53 24.92,-45.33 16.72,-192.92 106.92,-233.91 90.21,-41 238.08,-86.81 295.33,-10.6z"/>
    <path class="fil9" d="M2711.29 3368.47l-770.75 344.39c0,0 319.77,1270.96 155.78,1664.56l-114.8 -40.98 -8.2 -483.81 -213.16 -918.34 -90.22 -254.22 803.56 -541.14 237.79 229.54z"/>
    <g>
     <path class="fil9" d="M2790.53 4071.46l109.37 133.41 0 491.97 -131.21 0c0,0 -16.38,-344.36 -16.38,-385.37 0,-41.02 16.38,-188.61 16.38,-188.61l21.84 -51.39zm0 0l0 0 0 0z"/>
    </g>
    <g>
     <path class="fil9" d="M2793.3 4770.64l-369 16.4 106.62 73.8 262.38 40.99 0 -131.19zm0 0l0 0 0 0z"/>
    </g>
    <polygon class="fil5" points="4056.08,4688.64 4359.45,4680.45 4433.25,5434.83 4121.65,5475.81 "/>
    <path class="fil5" d="M4138.04 4688.64l459.2 -24.59c0,0 188.59,-475.59 188.59,-500.19 0,-24.58 164,-688.77 164,-688.77l-369.02 -385.38 -73.77 -65.6 -196.82 196.82 0 762.55 -172.19 705.17z"/>
    <g>
     <path class="fil9" d="M4343.02 4631.23l-286.94 57.41 40.98 229.61c106.59,49.2 286.98,-82 286.98,-82l-41.02 -205.02zm0 0l0 0 0 0z"/>
    </g>
    <polygon class="fil9" points="4351.25,3196.3 4925.24,3622.69 4941.63,3425.9 4507.05,3024.1 "/>
    <polygon class="fil10" points="3077.86,6304.06 2908.08,5615.19 2823.66,5106.9 2809.69,4729.63 3578.04,4688.71 4056.08,4688.64 4012.6,5549.68 4086.41,6213.86 4078.21,6336.85 3455.03,6386.06 "/>
    <g>
     <path class="fil7" d="M3949.46 4680.45c0,0 -41,852.77 82.02,1459.53 0,0 -245.99,155.83 -606.8,196.82l688.78 -24.62 82 -49.18 -98.39 -1344.73 -24.59 -287.02 -123.01 49.21zm0 0l0 0 0 0z"/>
    </g>
    <g>
     <path class="fil10" d="M4447.21 5369.29l319.8 -90.19 606.74 -32.79 90.19 -278.79 -163.99 -483.8 -188.56 -24.59 -262.42 82.01 -251.74 122.92 -133.63 -24.52 -104.16 40.92 87.76 688.84zm0 0l0 0 0 0z"/>
    </g>
    <g>
     <path class="fil7" d="M4441.45 5205.23c0,0 213.17,-98.39 245.99,-90.2l-90.2 -450.98 106.6 -40.98c0,0 73.79,426.35 73.79,475.56 0,0 459.18,24.6 500.16,24.6 0,0 98.39,-188.6 73.8,-385.41l90.19 262.43 8.2 147.57 -131.18 196.82 -147.61 32.78 -245.97 -8.19 -82 -106.59 -287.02 40.99 -90.19 32.81 -24.58 -131.21zm0 0l0 0 0 0z"/>
    </g>
    <path class="fil10" d="M4119.22 4623.13l-180.39 -459.18 -188.58 -270.62c0,0 40.99,-114.78 98.39,-114.78 57.41,0 188.58,0 188.58,0l180.39 65.61 -16.39 303.37 -82.01 475.6z"/>
    <g>
     <path class="fil7" d="M4154.46 4467.24c0,0 -229.6,-442.76 -229.6,-508.36 0,0 40.98,-98.39 98.39,-73.8 57.42,24.59 180.43,90.19 180.43,90.19l0 -155.79 -278.82 -57.42 -188.58 24.59 319.8 754.38 65.57 8.23 32.81 -82.03zm0 0l0 0 0 0z"/>
    </g>
    <g>
     <path class="fil10" d="M3151.65 3384.98l-227.13 -24.68 -213.23 -65.61 0 73.77 104.18 114.87 328 147.61 8.18 -245.96zm0 0l0 0 0 0z"/>
    </g>
    <path class="fil7" d="M2785.13 3409.56c0,0 254.19,106.6 336.19,82l8.16 98.3 -229.57 -49.08 -139.4 -98.39 24.62 -32.82z"/>
    <path class="fil1" d="M4446.32 3806.46c-139.13,-4.09 -264.84,-20.61 -374.87,-51.65 7.46,-45.13 -6.54,-89.39 4.7,-121.89 30.69,-22.08 82.09,-21.73 128.47,-26.93 -40.1,-19.7 -96.43,-27.5 -142.73,-16.12 -1.06,-31.31 -15.1,-50.72 -23.64,-75.21 78.24,-27.94 262.91,-210.96 366.77,-150.36 49.51,28.83 70.55,193.5 74.39,273.57 3.19,66.42 -6.05,133.42 -33.1,168.61z"/>
    <path class="fil11 str0" d="M4446.32 3806.46c-139.13,-4.09 -264.84,-20.61 -374.87,-51.65 7.46,-45.13 -6.54,-89.39 4.7,-121.89 30.69,-22.08 82.09,-21.73 128.47,-26.93 -40.1,-19.7 -96.43,-27.5 -142.73,-16.12 -1.06,-31.31 -15.1,-50.72 -23.64,-75.21 78.24,-27.94 262.91,-210.96 366.77,-150.36 49.51,28.83 70.55,193.5 74.39,273.57 3.19,66.42 -6.05,133.42 -33.1,168.61z"/>
    <path class="fil1" d="M3781 3579.02c-0.37,10.54 -0.83,21.13 -1.23,31.75 -43.44,28.55 -113.59,28.18 -161.27,52.19 70.3,3.08 125.62,19.99 173.49,43.84 -1.04,26.53 -2.05,53.03 -3.09,79.55 -79.64,54.49 -152.37,135.69 -246.13,186.81 -44.32,24.16 -199.88,86.39 -247.04,75.4 -26.7,-6.21 -29.09,-39.33 -39.75,-70.52 -22.76,-66.86 -75.06,-173.24 -79.63,-273.85 -5.82,-127.09 -18.64,-340.05 118.31,-313.9 110.49,21.09 238.99,71.99 324.53,118.71 52.28,28.58 82.52,63.92 161.81,70.02z"/>
    <path class="fil11 str0" d="M3781 3579.02c-0.37,10.54 -0.83,21.13 -1.23,31.75 -43.44,28.55 -113.59,28.18 -161.27,52.19 70.3,3.08 125.62,19.99 173.49,43.84 -1.04,26.53 -2.05,53.03 -3.09,79.55 -79.64,54.49 -152.37,135.69 -246.13,186.81 -44.32,24.16 -199.88,86.39 -247.04,75.4 -26.7,-6.21 -29.09,-39.33 -39.75,-70.52 -22.76,-66.86 -75.06,-173.24 -79.63,-273.85 -5.82,-127.09 -18.64,-340.05 118.31,-313.9 110.49,21.09 238.99,71.99 324.53,118.71 52.28,28.58 82.52,63.92 161.81,70.02l0 0z"/>
    <path class="fil1" d="M3860.09 3730.66c-12.16,-69.22 -26.19,-88.96 -20.76,-149.38 184.6,-123.08 219.27,211.42 20.76,149.38z"/>
    <path class="fil11 str0" d="M3860.09 3730.66c-12.16,-69.22 -26.19,-88.96 -20.76,-149.38 184.6,-123.08 219.27,211.42 20.76,149.38z"/>
    <g>
     <path class="fil2" d="M4127.41 3786.74c0,0 -57.44,-82 -16.42,-106.59 41.02,-24.62 82.04,0.03 106.62,-40.98 24.59,-41.02 0,-65.61 8.19,-114.82 8.17,-49.17 49.22,-57.42 90.2,-65.6 40.99,-8.19 155.8,-24.59 172.19,16.43l-49.2 -147.62 -98.39 -32.77 -311.6 180.39 -16.4 90.19 0 180.39 114.81 40.98zm0 0l0 0 0 0z"/>
    </g>
    <g>
     <path class="fil2" d="M3266.44 4057.37c-9.85,-127.98 -20.26,-255.75 -31.86,-383.62 -17.38,-190.9 45.83,-157.59 211.3,-157.59 25.27,0 155.62,30.15 164.96,49.21 44.69,91.32 -74.79,71.04 51.51,139.93 106.59,58.11 294.92,-35.3 251.85,-164.52 -24.1,-28.74 -125.58,-8.97 -162,-27.84 -64.03,-33.18 -128.1,-66.4 -192.15,-99.62 -81.51,-42.27 -269.89,-103.92 -356.75,-44.85 -220.18,149.75 13.86,523.89 92.42,680.09l-29.28 8.81zm0 0l0 0 0 0z"/>
    </g>
    <path class="fil3" d="M3482.2 1152.17c-223.49,-52.05 -334.53,93.52 -402.29,244.51 -60.47,-14.65 -36.41,-96.92 -21.12,-138.83 40,-110.01 201.2,-256.46 332.94,-236.6 56.67,8.53 133.39,60.36 90.47,130.91z"/>
    <path class="fil3" d="M4571.12 1406.67c3.53,0.15 7.09,0.27 10.59,0.42 50.53,104.92 94.22,216.06 157.94,308.66 -42.7,99.42 -323.21,187.38 -318.87,8.89 60.66,-26.53 165.41,-5.42 219.17,-39.28 -31.11,-85.33 -75.96,-157.98 -68.83,-278.69z"/>
    <path class="fil3" d="M3596.62 1409.4c47.92,87.85 63.52,180.13 131.64,246.54 30.67,29.88 90.32,66.31 60.75,149.44 -6.9,19.61 -57.4,63.32 -86.57,71.9 -106.47,31.44 -354.61,6.49 -270.58,-126.27 88.08,4.11 206.45,57.2 272.28,-6.74 -50.56,-80.82 -140.66,-240.68 -107.51,-334.87z"/>
    <path class="fil3" d="M4531.15 2302.21c-160.34,102.99 -339.12,214.98 -601.84,189.01 -56.15,-48.81 -77.54,-157.41 -22.99,-229.14 28.37,48.81 10.53,138.56 89.64,152.07 149.07,25.51 322.58,-91.19 429.79,-131.97 66.5,-112.09 -5.7,-153.32 -65.6,-225.48 -122.66,-147.81 -287.14,-331.03 -281.16,-552.32 49.55,-35.95 53.85,54.86 60.94,71.38 64.04,149.87 225.19,341.51 342.79,469.77 28.9,31.58 76.44,61.89 81.74,82.78 15.26,60.73 -39.71,133.5 -33.31,173.89z"/>
    <path class="fil3" d="M2417.39 2193.77c-50.26,-28.69 -62.23,-155.02 -121.23,-158.62 -84.32,-5.12 -68.94,163.9 -68.6,262.75 -58.05,-52.69 -68.25,-214.92 -25.61,-298.25 -48.59,-23.86 -70.29,26.33 -97.25,44.01 34.65,-251.64 368.13,-116.73 312.69,150.1z"/>
    <path class="fil3" d="M4633.22 2406.99c-74.63,142.07 -180.2,298.52 -399.21,303.05 -4.45,-45.86 -7.87,-115.67 0.25,-143.3 167.43,-16.09 270.8,-101.3 398.96,-159.75z"/>
    <path class="fil3" d="M3584 2499.1c139.68,73.45 396.39,81.34 586.23,75.78 10.21,41.6 9.96,92.99 10.36,143.71 -244.06,12.18 -532.61,-48.2 -596.59,-219.48z"/>
    <path class="fil3" d="M3557.45 2636.06c96.61,242.53 428.59,214.58 708.55,207.93 -12.31,31.47 -39.05,68.67 -72.25,82.13 -89.73,36.5 -337.16,64.19 -461.72,-1.93 -78.96,-41.99 -129.74,-136.89 -172.99,-192.48 -20.91,-26.86 -124.99,-95.49 -1.6,-95.64z"/>
    <path class="fil12" d="M4519.48 3973.83c-113.34,194.14 -221.81,393.55 -356.3,564.78 56.39,-165.78 80.53,-443.24 89.03,-654.76 117.95,-55.19 218.99,12.43 267.27,89.98z"/>
    <path class="fil3" d="M5129.45 4671.61c-126.9,25.38 -216.09,148.74 -339.87,140.81 68.04,-95.89 187.28,-136.36 339.87,-140.81z"/>
    <path class="fil3" d="M5185.42 4870.2c-103.43,10.93 -224.94,27.69 -329.84,19.03 49.68,-75.86 241.02,-49.67 329.84,-19.03z"/>
    <path class="fil3" d="M5221.27 5041.44c-116.26,2.52 -260.76,0.19 -371.25,-9.08 65.36,-70.21 295.86,-26.04 371.25,9.08z"/>
    <path class="fil7" d="M4300.75 5510.02c16.68,146 74.58,293.94 67.3,453.83 -64.25,21.67 -101.19,40.64 -187.31,40.52 -6.08,-135.87 -24.25,-343.62 -18.82,-473.17 42.34,2.83 104.81,-30.24 138.83,-21.18z"/>
    <path class="fil4" d="M4113.32 3358.31c-58.36,38.09 -108.1,85.67 -164.14,126.35 -124.3,6.14 -192.17,-8.62 -283.53,-80 1.51,-5.74 10.69,-3.15 11.03,-10.19 133.08,59.31 302.27,-24.16 436.64,-36.16z"/>
    <path class="fil12" d="M3414.69 4265.45c36.56,-158.45 179.84,-240.5 309.94,-327.75 134.28,170.43 215.97,389.61 305.89,601.1 -212.47,-64.04 -429.62,-167.99 -615.83,-273.35z"/>
    <path class="fil3" d="M4161.92 5531.2c-5.44,129.55 12.74,337.3 18.82,473.17 86.11,0.12 123.05,-18.85 187.31,-40.52 7.28,-159.89 -50.62,-307.83 -67.3,-453.83 -34.01,-9.06 -96.49,24.01 -138.83,21.18l0 0zm-1341.02 -736.7c56.8,522.08 139.08,960.93 289.93,1423.24 334.82,101.64 738.46,110.52 1034.4,18.79 -54.34,-260.94 -30.57,-578.6 -62.36,-857.04 -23.94,-209.29 -11.73,-419.85 -44.55,-633.38 -358.6,-74.6 -865.48,-17.43 -1217.42,48.39l0 0zm1302.22 -45.13c-3.04,224.23 10.04,445.4 27.18,669.9 86.08,-12.93 144.5,-21.56 224.5,-39.09 -25.98,-216.11 -22.79,-459.33 -75.71,-650.52 -61.17,0.58 -115,-0.71 -175.98,19.71l0 0zm436.77 -36.13c-40.86,-9.36 -88.44,-0.38 -127.46,0.39 18.32,182.78 62.86,384.46 78.52,576.33 61.42,1.9 94.26,-27.07 144.79,-36.8 2.69,-168.43 -14.74,-400.45 -95.85,-539.91l0 0zm661.3 604.22c128.04,-31.1 208.57,-187.91 172.74,-348.96 -24.03,-108.24 -66.83,-312.04 -112.63,-381.29 -33.87,-51.22 -125.62,-118.26 -198.91,-71.35 -119.2,76.35 -329.23,98.51 -416.13,190.89 43.58,145.16 57.1,344.51 75.1,528.4 148.93,9.28 332.16,-40.98 456,12.35 -86.47,28.03 -198.65,28.24 -273.38,69.07 61.06,29.47 204,23.52 297.21,0.89l0 0zm-1190.66 -778.66c-89.91,-211.49 -171.6,-430.67 -305.89,-601.1 -130.11,87.24 -273.38,169.3 -309.94,327.75 186.21,105.36 403.36,209.31 615.83,273.35zm221.69 -654.95c-8.5,211.53 -32.64,488.99 -89.03,654.76 134.49,-171.24 242.96,-370.64 356.3,-564.78 -48.32,-77.55 -149.32,-145.18 -267.27,-89.98l0 0zm-251.31 -89.31c-50.93,-5.47 -94.18,58.58 -160.43,30.89 -15.17,16.79 -28.99,34.96 -44.45,51.33 146.32,176.32 212.81,426.5 325.81,633.73 60.66,-199.06 53.66,-417.16 67.02,-634.39 -83.33,5.28 -129.56,-75.36 -187.95,-81.57zm-161.57 -213.27c-5.43,60.38 8.6,80.16 20.76,149.38 198.5,62.04 163.83,-272.47 -20.76,-149.38zm-220.14 -72.28c-85.54,-46.72 -214.04,-97.62 -324.53,-118.71 -136.95,-26.19 -124.14,186.81 -118.31,313.9 4.56,100.61 56.87,206.99 79.63,273.85 10.65,31.19 13.04,64.31 39.73,70.52 47.18,10.99 202.74,-51.24 247.06,-75.4 93.76,-51.12 166.49,-132.32 246.13,-186.81 1.04,-26.52 2.05,-53.02 3.09,-79.55 -47.86,-23.85 -103.19,-40.76 -173.49,-43.84 47.67,-24.01 117.83,-23.64 161.27,-52.19 0.4,-10.62 0.86,-21.21 1.23,-31.75 -79.33,-6.1 -109.53,-41.44 -161.81,-70.02l0 0zm-817.05 -148.4c-70.98,72.09 199.12,170.32 285.14,175.6 -0.49,-45.59 25.97,-88.58 20.66,-121.32 -102.14,-17.93 -236.39,-6.08 -305.81,-54.28l0 0zm874.55 33.87c-0.34,7.03 -9.52,4.44 -11.03,10.19 91.36,71.38 159.18,86.14 283.53,80 56.05,-40.68 105.78,-88.26 164.14,-126.35 -134.37,11.99 -303.55,95.47 -436.64,36.16l0 0zm802.74 243.39c-3.84,-80.07 -24.88,-244.74 -74.36,-273.57 -103.89,-60.64 -288.57,122.42 -366.8,150.36 8.54,24.49 22.58,43.9 23.64,75.21 46.3,-11.38 102.63,-3.58 142.73,16.12 -46.38,5.2 -97.78,4.85 -128.47,26.93 -11.24,32.51 2.76,76.77 -4.7,121.89 110.03,31.04 235.73,47.57 374.87,51.65 27.05,-35.19 36.3,-102.18 33.1,-168.61l0 0zm-1796.8 -207.53c-22.29,-15.91 -173.08,-212.14 -193.74,-203.97 -272.9,107.61 -528.07,293.7 -756.1,469.7 217.41,466.51 305.16,1038.05 320.68,1588.9 249.05,116.5 467.78,284.4 805.75,301.93 -39.11,-276.66 -74.82,-523.53 -97.02,-784.04 -84.91,-35.79 -206.73,1.63 -286.21,-11.08 -0.66,-95.79 121.35,-41.93 131.55,-106.34 7.64,-48.73 -67.18,-52.42 -42.8,-129.1 62.11,22.57 94.74,72.44 161,91.17 60.54,-132.43 -0.82,-366.76 7.89,-477.47 1.66,-20.78 10.38,-115.13 56.91,-98.57 41.24,14.64 -2.33,250.94 2.18,355.71 4.12,96.52 -11.66,189.94 27.42,250.51 326.58,-44.45 658.42,-73.16 1011.78,-82.86 -77.74,-33.37 -170.08,-64.93 -271.33,-122 -54.9,-30.95 -227.92,-95.32 -243.76,-147.46 -25.28,-83.06 66.31,-127.31 81.97,-198.52 -164.83,89.91 -197,-86.17 -235.99,-210.9 -35.33,-112.99 -55.44,-197.37 -64.1,-262.55 -142.01,-67.69 -293.82,-136.26 -416.07,-223.07l0 0zm1652.56 -180.24c227.37,-110.24 268.35,412.06 179.23,580.32 13.78,50.19 61.15,69.38 80.49,114.5 -126.88,227.3 -267.82,439.47 -397.29,664.07 96.3,-59.92 233.87,-10.71 347.18,-55.59 41.44,-16.36 71.44,-111.19 102.78,-187.06 86.27,-208.72 176.87,-471.88 217.14,-671.07 9.12,-45.36 33.9,-144.24 28.34,-184.65 -9.92,-72.33 -108.04,-125.93 -157.94,-170.66 -91.96,-82.61 -149.86,-155.31 -245.79,-232.56 -38.86,57.45 -122.33,96 -154.14,142.7l0 0zm-2172.54 -2016.34c-108.34,119.21 -85.67,342.57 -72.54,501.47 195.83,-123.19 455.75,9.74 453.29,219.29 93.48,-2.5 34.94,-116.78 18.02,-190.41 -55.29,-240.48 93.11,-501.73 6.73,-721.66 -167.73,12.72 -305.52,81.23 -405.5,191.31l0 0zm775.22 -691.87c-245.3,69.53 -559.62,247.74 -660.41,468.07 78.04,-11.35 132.21,-50.7 209.22,-55.58 29.06,-1.88 67.2,12.21 100.63,3.89 66.65,-16.52 122.89,-165.94 173.18,-221.54 48.99,-54.29 107.91,-77.48 148.21,-126.97 25.89,-12.5 64.2,-11.64 65.64,-50.53 -11.21,-12 -23.01,-21.16 -36.47,-17.34l0 0zm1276.76 65.38c-254.6,-143.64 -685.5,-251.67 -956.29,-116.67 -218.5,108.94 -513.89,289.2 -614.58,517.63 94.09,220.44 -27.84,422.41 -35.64,646.21 -4.15,119.09 56.05,223.05 60.69,352.68 -32.21,53.12 -130.56,59.67 -198.63,56.02 -22.91,-114.68 -63.04,-243.58 -181.14,-256.52 -167.09,-18.27 -289.27,120.02 -296.86,264.54 -9,169.95 130.53,451.63 328.28,432.07 76.39,-7.54 95.16,-84.12 178.39,-83.33 45.13,90 -69.58,118.26 -81.38,182.65 -3.07,16.64 9.51,81.63 16.83,112.08 35.92,148.43 116,340.5 194.81,453.46 100.01,143.3 296.55,164.93 507.98,178.97 37.76,-81.35 176.86,-74.66 267.52,-53.39 -108.65,-43.03 -209.62,-147.32 -293.34,-239.63 -96.12,-105.95 -193.51,-219.56 -198.45,-357.99 181.68,252.04 331.78,472.13 662.13,583.02 249.99,83.84 541.91,-38.44 733.99,-173.31 79.71,-56.05 127.29,-145.03 183.92,-226.43 211.99,-304.91 310.87,-740.12 289.14,-1161.95 -8.98,-173.96 -8.58,-347.34 -66.93,-464.37 -61.01,-122.38 -267.34,-231.87 -388.15,-121.17 -22.37,-119.02 100.47,-192.61 244.71,-149.79 -102.87,-132.76 -210.82,-292.29 -357.03,-374.8l0 0zm474.28 3925.22c198.93,-98.92 570.64,-266.2 695.35,0.37 46.02,98.24 100.01,264.32 123.87,365.75 33.68,143.09 -36.53,443.83 -183.58,491.88 -129.92,42.4 -281.49,39.81 -437.97,8.37 -18.45,-15.32 -38.95,-42.06 -53.3,-69.89 -111.72,-4.33 -216.34,6.01 -304.6,51.94 8.35,82.61 -47.53,95.87 -99.93,112.92 -38.84,153.98 77.71,355.14 49.83,495.55 -19.92,100.04 -142.99,115.53 -233.46,134.24 -2.99,55.61 3.96,102.01 10.13,149.04 -20.7,76.23 -113.5,119.61 -201.39,130.27 -289.29,34.78 -728.48,50.4 -1006.71,-49.65 -77.63,-190.45 -138.8,-422.09 -203.48,-639.54 -271.35,28.99 -490.81,-117.08 -697.72,-212.77 -71.63,-33.22 -170.73,-51.52 -197.48,-108.53 -25.96,-55.22 -15.34,-161.01 -21.77,-260.94 -16.38,-255.28 -30.4,-501.48 -97.82,-762.86 -30.27,-117.27 -83.02,-220.79 -119.83,-333.8 -34,-104.71 -93.43,-234.17 -108.94,-338.61 -22.98,-154.82 122.79,-163.42 215.99,-230.5 144.08,-103.74 257.18,-161.12 413.23,-254.72 46.22,-27.72 185.6,-97.89 201.45,-130.23 31.53,-64.1 -54.09,-154.45 -76.99,-204.66 -36.2,-79.43 -55.07,-146.91 -60.27,-225.28 -130.89,-20.7 -230.14,-98.61 -290.07,-186.45 -99.15,-145.37 -167.92,-414.34 -82.13,-618.92 6.73,-16.12 40.28,-47.8 45.22,-72.55 9.77,-48.73 -18.37,-113.52 -20.12,-165.35 -9.02,-265.92 45,-495.04 224.01,-575.23 72.66,-289.5 332.78,-385.76 577.83,-529.64 91.61,-53.78 192.57,-88.14 296.87,-126.53 374.1,-137.68 948.1,-111.75 1258.59,123.07 131.65,99.58 342.08,309.82 417.36,462.04 198.81,401.88 184.69,1073.51 45.65,1562.36 -18.69,65.64 -45.81,162.13 -83.66,240.96 -26.4,55.04 -108.42,165.19 -98.48,213.82 10.26,50.25 187.06,184.48 224.97,221.04 68.25,65.86 197.95,153.25 208.45,236.36 11.3,88.41 -38.95,209.41 -64.45,294.75 -85.09,284.77 -168.14,548.02 -264.65,801.9z"/>
    <path class="fil8" d="M3361.74 2561.12c10.76,-14.36 70.11,-36.16 153.12,3.82 0,0 -98.39,16.39 -90.19,180.45l-41.02 -8.22c0,0 -42.36,-148.75 -21.91,-176.05z"/>
    <path class="fil13" d="M4080.67 3971.19c0,24.9 -20.21,45.07 -45.11,45.07 -24.9,0 -45.11,-20.17 -45.11,-45.07 0,-24.91 20.21,-45.13 45.11,-45.13 24.9,0 45.11,20.22 45.11,45.13z"/>
    <path class="fil13" d="M4125.76 4180.29c0,24.9 -20.2,45.07 -45.13,45.07 -24.9,0 -45.07,-20.17 -45.07,-45.07 0,-24.91 20.17,-45.13 45.07,-45.13 24.94,0 45.13,20.22 45.13,45.13z"/>
   </g>
  </g>
  <polygon class="fil11" points="1135.74,6429.46 5583.25,6429.46 5583.25,289.54 1135.74,289.54 "/>
 </g>
</svg>
