<?xml version="1.0" encoding="UTF-8"?>
<!DOCTYPE svg PUBLIC "-//W3C//DTD SVG 1.1//EN" "http://www.w3.org/Graphics/SVG/1.1/DTD/svg11.dtd">
<!-- Creator: CorelDRAW 2018 (64-Bit) -->
<svg xmlns="http://www.w3.org/2000/svg" xml:space="preserve" width="67.7334mm" height="67.7334mm" version="1.1" style="shape-rendering:geometricPrecision; text-rendering:geometricPrecision; image-rendering:optimizeQuality; fill-rule:evenodd; clip-rule:evenodd"
viewBox="0 0 5038.32 5038.32"
 xmlns:xlink="http://www.w3.org/1999/xlink">
 <defs>
  <style type="text/css">
   <![CDATA[
    .fil0 {fill:whitesmoke}
    .fil1 {fill:#2684FF}
    .fil3 {fill:url(#id0)}
    .fil2 {fill:url(#id1)}
   ]]>
  </style>
  <linearGradient id="id0" gradientUnits="userSpaceOnUse" x1="2619.69" y1="3546.15" x2="1712.68" y2="4438.55">
   <stop offset="0" style="stop-opacity:1; stop-color:#0052CC"/>
   <stop offset="0.180392" style="stop-opacity:1; stop-color:#0052CC"/>
   <stop offset="1" style="stop-opacity:1; stop-color:#2684FF"/>
  </linearGradient>
  <linearGradient id="id1" gradientUnits="userSpaceOnUse" xlink:href="#id0" x1="3485.12" y1="2702.28" x2="2700.82" y2="3520.41">
  </linearGradient>
 </defs>
 <g id="Слой_x0020_1">
  <metadata id="CorelCorpID_0Corel-Layer"/>
  <path class="fil0" d="M1180.86 0l2676.61 0c652.06,0 1180.86,528.8 1180.86,1180.86l0 2676.61c0,652.05 -528.8,1180.85 -1180.86,1180.85l-2676.61 0.01c-652.05,-0.01 -1180.85,-528.81 -1180.85,-1180.86l-0.01 -2676.6c0.01,-652.06 528.81,-1180.86 1180.86,-1180.86z"/>
  <g id="_2381435339920">
   <path class="fil1" d="M4284.01 593.43l-1854.68 0c0,462.31 374.92,837.23 837.23,837.23l341.66 0 0 329.87c0.3,461.97 374.72,836.4 836.69,836.7l0 -1842.91c0,-88.84 -72.01,-160.89 -160.89,-160.89z"/>
   <path class="fil2" d="M3366.32 1517.54l-1854.66 0c0.29,461.97 374.7,836.4 836.69,836.7l341.66 0 0 330.93c0.59,461.97 375.26,836.14 837.23,836.14l0 -1842.85c0,-88.87 -72.04,-160.91 -160.91,-160.91l0 -0.01z"/>
   <path class="fil3" d="M2448.1 2441.13l-1854.68 0c0,462.39 374.85,837.23 837.23,837.23l342.73 0 0 329.86c0.3,461.55 374.07,835.81 835.63,836.69l0 -1842.86c0,-88.86 -72.05,-160.91 -160.91,-160.91z"/>
  </g>
 </g>
</svg>
