<?xml version="1.0" encoding="UTF-8"?>
<!DOCTYPE svg PUBLIC "-//W3C//DTD SVG 1.1//EN" "http://www.w3.org/Graphics/SVG/1.1/DTD/svg11.dtd">
<!-- Creator: CorelDRAW 2018 (64-Bit) -->
<svg xmlns="http://www.w3.org/2000/svg" xml:space="preserve" width="67.733mm" height="67.3828mm" version="1.1" style="shape-rendering:geometricPrecision; text-rendering:geometricPrecision; image-rendering:optimizeQuality; fill-rule:evenodd; clip-rule:evenodd"
viewBox="0 0 6718.96 6684.22"
 xmlns:xlink="http://www.w3.org/1999/xlink">
 <defs>
  <style type="text/css">
   <![CDATA[
    .fil3 {fill:none}
    .fil0 {fill:#FEFEFE}
    .fil1 {fill:#25A162}
    .fil2 {fill:#DC524A}
   ]]>
  </style>
   <clipPath id="id0">
    <path d="M3359.48 0c1855.38,0 3359.47,1496.31 3359.47,3342.11 0,1845.8 -1504.09,3342.11 -3359.47,3342.11 -1855.38,0 -3359.48,-1496.31 -3359.48,-3342.11 0,-1845.8 1504.1,-3342.11 3359.48,-3342.11zm-15.54 2746.62c457.02,0 818.59,120.99 1085.54,362.69 266.66,241.96 400.14,571.63 400.14,989.53 0,483.94 -152.07,862.16 -455.92,1134.93 -301.91,271.12 -732.01,406.52 -1290.32,406.52 -506.7,0 -904.62,-81.58 -1194.04,-245.02l0 -660.43c180.95,100.23 375.18,174.32 576.9,220.05 217,51.61 418.73,77.69 604.93,77.69 328.55,0 578.85,-73.53 750.34,-220.32 171.76,-147.08 257.5,-361.85 257.5,-645.17 0,-541.66 -345.47,-812.77 -1035.86,-812.77 -97.12,0 -217.27,10.54 -359.91,31.08 -142.63,18.59 -267.77,40.23 -375.17,65.21l-325.78 -192.3 173.72 -2214.37 2357.28 0 0 647.94 -1715.17 0 -102.67 1122.73c72.7,-12.22 160.39,-26.64 263.62,-43.29 105.45,-16.66 233.93,-24.98 384.88,-24.98l0 0.28z"/>
   </clipPath>
 </defs>
 <g id="Слой_x0020_1">
  <metadata id="CorelCorpID_0Corel-Layer"/>
  <rect class="fil0" x="1690.29" y="771.43" width="3394.5" height="5126.74"/>
  <path class="fil1" d="M3359.48 0c1855.38,0 3359.47,1496.31 3359.47,3342.11 0,1845.8 -1504.09,3342.11 -3359.47,3342.11 -1855.38,0 -3359.48,-1496.31 -3359.48,-3342.11 0,-1845.8 1504.1,-3342.11 3359.48,-3342.11zm-15.54 2746.62c457.02,0 818.59,120.99 1085.54,362.69 266.66,241.96 400.14,571.63 400.14,989.53 0,483.94 -152.07,862.16 -455.92,1134.93 -301.91,271.12 -732.01,406.52 -1290.32,406.52 -506.7,0 -904.62,-81.58 -1194.04,-245.02l0 -660.43c180.95,100.23 375.18,174.32 576.9,220.05 217,51.61 418.73,77.69 604.93,77.69 328.55,0 578.85,-73.53 750.34,-220.32 171.76,-147.08 257.5,-361.85 257.5,-645.17 0,-541.66 -345.47,-812.77 -1035.86,-812.77 -97.12,0 -217.27,10.54 -359.91,31.08 -142.63,18.59 -267.77,40.23 -375.17,65.21l-325.78 -192.3 173.72 -2214.37 2357.28 0 0 647.94 -1715.17 0 -102.67 1122.73c72.7,-12.22 160.39,-26.64 263.62,-43.29 105.45,-16.66 233.93,-24.98 384.88,-24.98l0 0.28z"/>
  <g style="clip-path:url(#id0)">
   <g id="_2381466818912">
    <polygon id="1" class="fil2" points="4513.28,1691.88 4513.28,-176.02 604.95,-1158.33 -1825.87,4003 5.56,7432.79 1889.33,6924.97 1889.33,4734.84 2461.35,5268.35 3626.82,5285.01 4259.49,4519.13 4176.24,3403.61 2869.26,3087.27 2294.86,2912.46 2519.62,1530.55 "/>
   </g>
  </g>
  <path class="fil3" d="M3359.48 0c1855.38,0 3359.47,1496.31 3359.47,3342.11 0,1845.8 -1504.09,3342.11 -3359.47,3342.11 -1855.38,0 -3359.48,-1496.31 -3359.48,-3342.11 0,-1845.8 1504.1,-3342.11 3359.48,-3342.11zm-15.54 2746.62c457.02,0 818.59,120.99 1085.54,362.69 266.66,241.96 400.14,571.63 400.14,989.53 0,483.94 -152.07,862.16 -455.92,1134.93 -301.91,271.12 -732.01,406.52 -1290.32,406.52 -506.7,0 -904.62,-81.58 -1194.04,-245.02l0 -660.43c180.95,100.23 375.18,174.32 576.9,220.05 217,51.61 418.73,77.69 604.93,77.69 328.55,0 578.85,-73.53 750.34,-220.32 171.76,-147.08 257.5,-361.85 257.5,-645.17 0,-541.66 -345.47,-812.77 -1035.86,-812.77 -97.12,0 -217.27,10.54 -359.91,31.08 -142.63,18.59 -267.77,40.23 -375.17,65.21l-325.78 -192.3 173.72 -2214.37 2357.28 0 0 647.94 -1715.17 0 -102.67 1122.73c72.7,-12.22 160.39,-26.64 263.62,-43.29 105.45,-16.66 233.93,-24.98 384.88,-24.98l0 0.28z"/>
 </g>
</svg>
