<?xml version="1.0" encoding="UTF-8"?>
<!DOCTYPE svg PUBLIC "-//W3C//DTD SVG 1.1//EN" "http://www.w3.org/Graphics/SVG/1.1/DTD/svg11.dtd">
<!-- Creator: CorelDRAW 2018 (64-Bit) -->
<svg xmlns="http://www.w3.org/2000/svg" xml:space="preserve" width="67.7334mm" height="67.7334mm" version="1.1" style="shape-rendering:geometricPrecision; text-rendering:geometricPrecision; image-rendering:optimizeQuality; fill-rule:evenodd; clip-rule:evenodd"
viewBox="0 0 7563.63 7563.63"
 xmlns:xlink="http://www.w3.org/1999/xlink">
 <defs>
  <style type="text/css">
   <![CDATA[
    .fil0 {fill:whitesmoke}
    .fil2 {fill:#2B2A29}
    .fil1 {fill:#0F9B2E}
   ]]>
  </style>
 </defs>
 <g id="Слой_x0020_1">
  <metadata id="CorelCorpID_0Corel-Layer"/>
  <path class="fil0" d="M1772.73 0l4018.18 0c978.88,0 1772.73,793.85 1772.73,1772.73l0 4018.18c0,978.87 -793.85,1772.71 -1772.73,1772.71l-4018.18 0.01c-978.87,-0.01 -1772.71,-793.86 -1772.71,-1772.74l-0.01 -4018.17c0.01,-978.88 793.86,-1772.73 1772.74,-1772.73z"/>
  <g id="_2381435363120">
   <path class="fil1" d="M3848.36 3835.18l-2045.41 2045.41c1129.64,1129.65 2961.17,1129.65 4090.81,0 1129.65,-1129.64 1129.65,-2961.17 0,-4090.82l-2045.41 2045.42zm1853.38 1598.42c16.42,-358.44 -26.8,-706.48 -123.27,-1036.59l-456.67 456.65 579.94 579.94zm-250.14 -1391.17c-125.55,-294.94 -295.43,-571.85 -504.36,-824.7l-730.69 730.69 664.52 664.52 570.52 -570.51zm-262.61 -1066.45c209.58,249.38 384.35,520.72 520.19,808.87l605.9 -605.91c-83.92,-316.63 -229.57,-620.3 -437.23,-891.81l-688.86 688.86zm660.08 1150.42c112.99,322.82 179.18,662.73 193.54,1013.33 282.35,-474.12 397.65,-1020 345.87,-1552.74l-539.41 539.41zm-2584.92 774.43c253.43,198.66 534.74,367.52 832.57,496.47l543.63 -543.64 -664.52 -664.52 -711.68 711.69zm1183.34 627.15c329.27,103.15 672.28,156.57 1015.23,148.04l-581.64 -581.63 -433.58 433.59zm736.19 482.72c-342.07,-21.78 -680.64,-96.32 -1004.6,-214.31l-578.92 578.91c544.31,52.85 1102.34,-68.68 1583.52,-364.6zm-1344.19 -356.18c-291.81,-138 -567.37,-311.05 -817.69,-511.36l-721.5 721.51c271.51,207.66 575.18,353.34 891.81,437.23l647.37 -647.38z"/>
   <path class="fil2" d="M3715.27 3728.46l2045.41 -2045.41c-1129.64,-1129.66 -2961.17,-1129.66 -4090.81,0 -1129.65,1129.64 -1129.65,2961.17 0,4090.81l2045.41 -2045.41zm609.59 -1091.05c-250.63,-196.4 -529.29,-363.82 -824.53,-492.85l-544.63 544.63 658.68 658.69 710.47 -710.47zm-1173.99 -624.84c-333.89,-106.69 -682.12,-163.41 -1029.83,-158.04l593.94 593.94 435.89 -435.89zm-722.72 -488.54c337.23,26.47 671.03,102.95 990.47,220.79l555.41 -555.41c-529.58,-53.63 -1072.7,57.9 -1545.88,334.62zm1329.1 363.6c289.25,137.71 562.28,309.24 809.98,507.4l696.07 -696.08c-268.86,-205.64 -569.26,-350.55 -882.55,-434.81l-623.5 623.5zm-1870.76 213.79c-15.33,359.96 30.25,711.04 130.51,1045.02l457.26 -457.26 -587.76 -587.76zm259.3 1397.67c125.64,290.55 294.26,564.66 501.16,816.21l726.7 -726.7 -658.68 -658.69 -569.18 569.18zm259.39 1057.98c-207.52,-248.07 -380.91,-516.74 -516.45,-800.91l-637.78 637.78c84.3,313.29 229.18,613.69 434.81,882.57l719.42 -719.43zm-657.87 -1140.94c-117.76,-330.02 -186.53,-676.84 -201.23,-1033.27 -302.46,486.6 -425.78,1052.81 -369.88,1604.36l571.1 -571.09z"/>
  </g>
 </g>
</svg>
